<?xml version="1.0" standalone="no"?><!DOCTYPE svg PUBLIC "-//W3C//DTD SVG 1.1//EN" "http://www.w3.org/Graphics/SVG/1.1/DTD/svg11.dtd"><svg width="169" height="255" version="1.1" xmlns="http://www.w3.org/2000/svg" xmlns:xlink="http://www.w3.org/1999/xlink"><path stroke-width="1" stroke="white" fill="steelblue" d="M115.08887683591456,246.20314194462662L114.83121848932933,246.348453927807L114.25148720946163,246.63907770271726L113.54292675630131,247.3656360232726L112.9470918297884,248.3343779691986L110.20947189712024,248.40703350081276L104.76643932510342,248.62499999999636L102.75348349225533,248.52812601807818L101.28805164591176,247.89844444446135L100.16079637952498,247.38985460647928L98.79198641318362,246.46954719837595L94.18634346763429,243.70860961491599L99.1301629931113,237.60540265173586L100.61169848610007,235.66785307359532L111.73931833007373,243.92657920921556Z" /><path stroke-width="1" stroke="white" fill="steelblue" d="M141.85313758946722,192.4090977764081L142.04638134939887,194.63757097562848L142.0785886427184,195.8486913891702L142.25572875603393,196.91447366899774L142.35235063599248,197.27780774888197L141.03185160967405,199.45780381246914L140.75808961639996,201.34712206608674L137.9399514504039,201.68622932388826L136.8771107706707,198.36780758396344L136.2007576108299,196.26047131521227L135.84647738424246,194.87979541465938L135.33116069102834,194.03200909855877L135.57271539096837,193.35377847416567L134.89636223112757,191.14951929630843L134.55818565121444,189.47814810363343L134.68701482453616,188.19433548247798L135.68544091760123,188.00055201035138L138.56799367023632,188.02477495059975L139.7918708166253,188.09744376067465L140.53263856310514,189.1874739864379L141.1284734896326,190.44705997377787L141.82093029613316,191.80353180092425Z" /><path stroke-width="1" stroke="white" fill="steelblue" d="M137.9399514504039,201.68622932388826L136.97373265062924,202.0011143222273L136.1041357308277,202.34022090700455L134.31663095125987,202.9215456691145L130.06526823231252,204.64129208670238L130.67720680548518,202.7035490034832L131.30524902533216,200.7900165278279L131.41797455196502,199.21558274002382L131.40187090530526,198.0771413139355L131.25693808535289,196.98714051705065L131.079797972081,195.8002466581347L131.41797455196502,193.83822906272144L131.74004748523294,192.43332039225425L131.85277301188034,190.51972824905897L131.77225477855245,189.28436538734968L133.97845437137585,188.29122717576138L134.68701482453616,188.19433548247798L134.55818565121444,189.47814810363343L134.89636223112757,191.14951929630843L135.57271539096837,193.35377847416567L135.33116069102834,194.03200909855877L135.84647738424246,194.87979541465938L136.2007576108299,196.26047131521227L136.8771107706707,198.36780758396344Z" /><path stroke-width="1" stroke="white" fill="steelblue" d="M146.8452680548944,194.39534635842028L148.69718742113037,198.70691790819365L146.0400857217901,203.64820017974125L145.6858054951881,202.67932714285416L144.05933718226152,200.69312851197355L142.77104544921895,198.92491721799888L142.35235063599248,197.27780774888197L142.25572875603393,196.91447366899774L142.0785886427184,195.8486913891702L142.04638134939887,194.63757097562848L141.85313758946722,192.4090977764081L142.8837709758809,192.14264888441903L144.42972105549416,190.42283721177955Z" /><path stroke-width="1" stroke="white" fill="steelblue" d="M120.01659271473181,208.71051548443575L120.24204376801208,209.2191648778844L120.03269636139157,211.25375460601936L120.17762918137305,212.2952659192415L120.33866564798518,213.9423003534339L120.00048906807206,213.99074241818198L117.79428947527776,213.89385828156628L114.75070025600144,213.99074241818198L113.07592100308102,214.16028958880452L110.6281667103467,214.32983667228473L107.79392489769089,214.1118475489602L105.33006695828226,213.26411069999813L102.94672725218697,211.54440925681047L101.27194799928111,209.82469884705824L99.66158333298517,207.76587881491832L98.38939524661691,205.8039324685251L96.05436648053,203.67242196917323L94.42789816758886,202.99421119226463L92.88194808796106,202.3159990196673L92.01235116815951,201.78311704772568L91.07833966173348,200.64468449336346L98.03511502007314,194.46801376229632L102.97893454552104,202.19488955625457L115.169395069257,201.46823184107416Z" /><path stroke-width="1" stroke="white" fill="steelblue" d="M153.02906837342016,15.099995069209399L132.38419335173967,27.920464351067494L108.90507651741791,46.38686609401702L108.14820512427832,33.90640781518414L99.69379062631924,27.120714552318532L126.52246596651094,6.374999999996362L127.29544100631028,7.5868189286775305L128.32607439270942,8.919814511467848L129.6304697724263,10.131623915716773L130.51617033887305,10.567874191128794L131.079797972081,10.495165852713399L132.3358824117604,9.743845399741986L133.36651579817408,9.16217675513144L134.0911798980087,9.137940538917974L135.54050809764885,9.865026235884216L136.8771107706707,10.955651720389142L138.14929885700985,12.167453506743186L139.82407810994482,13.112655752744104L142.33624698933272,14.057855240667777L144.70348304876825,14.494100228002935L147.66655403471668,14.494100228002935L149.29302234764327,14.639515093231239L150.90338701392466,14.566807668779802Z" /><path stroke-width="1" stroke="white" fill="steelblue" d="M158.0050951922167,21.498175443439322L154.2690491664689,23.921695635270225L150.75845419397228,26.151318212967453L148.2784926079039,29.277611012377747L147.18344463480753,34.221454412227104L143.7372642489936,49.85222866929689L141.6276865361724,49.56143043303564L125.41131434678391,49.65836320737071L116.21613210233045,48.78596719756388L113.86499968955468,48.51940128300157L110.91803235025145,47.42890208268L109.21104580402607,46.67766717121958L108.90507651741791,46.38686609401702L132.38419335173967,27.920464351067494L153.02906837342016,15.099995069209399L154.43008563308103,15.560474390696982L155.47682266615448,16.23907430316649L156.73290710586298,18.66263381792851Z" /><path stroke-width="1" stroke="white" fill="steelblue" d="M164.44655385734222,39.40756213907298L155.47682266615448,38.268564270894785L152.46544074021222,37.56577635879694L150.1304119741253,36.13596177221916L148.40732178119652,34.681906580859504L147.18344463480753,34.221454412227104L148.2784926079039,29.277611012377747L150.75845419397228,26.151318212967453L154.2690491664689,23.921695635270225L158.0050951922167,21.498175443439322L159.14845410526323,24.40639749976981L159.1645577519521,25.81202880962701L159.1967650452425,26.660251652416264L159.4705270385166,27.556941959734104L161.01647711815895,28.21128197078906L162.28866520451265,28.162812385597135L163.10995118432038,27.460002586560222L163.67357881751377,26.99954016836091L164.2049991573731,27.29035861381817L164.8169377305603,27.84775990538037L165.01018149052106,29.083733265535557L164.60759032395435,31.167912971923215L164.1083772774291,35.6755116664026Z" /><path stroke-width="1" stroke="white" fill="steelblue" d="M108.90507651741791,46.38686609401702L93.83206324104685,51.984741118520105L85.98958731628954,64.51296932169134L80.1117562843865,73.67256786426697L63.299549168456,55.425811252800486L64.33018255488423,54.33533522274229L66.55248579433828,53.17215675933403L68.67816715381923,51.62124566748025L70.80384851331473,50.0945603340806L73.02615175276878,48.54363455698876L73.97626690588368,47.71970222726668L75.81208262543078,45.87796358259402L99.69379062631924,27.120714552318532L108.14820512427832,33.90640781518414Z" /><path stroke-width="1" stroke="white" fill="steelblue" d="M164.44655385734222,39.40756213907298L164.46265750397288,47.768168892738686L164.4787611506472,50.11879349062292L143.7372642489936,49.85222866929689L147.18344463480753,34.221454412227104L148.40732178119652,34.681906580859504L150.1304119741253,36.13596177221916L152.46544074021222,37.56577635879694L155.47682266615448,38.268564270894785Z" /><path stroke-width="1" stroke="white" fill="steelblue" d="M125.41131434678391,49.65836320737071L124.79937577358214,50.65192247738196L124.10691896708158,51.08811827064528L124.26795543370827,51.984741118520105L124.13912626041565,52.517867044787636L124.4289919003204,53.19638968644722L125.33079611344147,53.608349170801375L125.63676540003507,54.504965067619196L125.05703412016737,54.91692289388993L124.39678460701543,55.716604243176334L124.78327212692238,56.710144998212854L125.34689976013033,57.77638048058907L124.83158306691621,58.406427077105036L123.80094968048797,58.98800746755478L123.46277310057485,59.90884095912588L122.85083452737308,60.34502433477428L121.53033550102555,61.12046000301234L120.56411670128,62.08975198918233L119.91997083475871,63.13173765367719L119.43686143487867,63.85870242029523L119.09868485493644,64.53720140389851L118.79271556837193,65.07030675575334L118.72830098171835,65.70033922752918L117.90701500191062,66.35460242659065L116.89248526217125,66.35460242659065L116.16782116235117,66.45153019609825L115.08887683591456,67.59042932554439L114.44473096942238,68.6323973791059L114.17096897614829,69.868215630946L114.20317626948236,70.81324995262366L90.03160262866004,69.43204501890068L85.98958731628954,64.51296932169134L93.83206324104685,51.984741118520105L108.90507651741791,46.38686609401702L109.21104580402607,46.67766717121958L110.91803235025145,47.42890208268L113.86499968955468,48.51940128300157L116.21613210233045,48.78596719756388Z" /><path stroke-width="1" stroke="white" fill="steelblue" d="M138.37474991030467,80.4815204860588L122.25499960084562,80.91767630319555L102.83400172555412,83.9222894065042L102.99503819219535,82.95306239920501L103.18828195214155,82.49267856122606L103.02724548550032,81.32960070563422L103.63918405868753,80.86921457456265L104.33164086518809,80.8934454397695L105.12071955166175,80.16651869957786L105.02409767168865,78.93073951989027L105.45889613157487,77.62226233903675L105.82928000485117,77.76764895195811L106.58615139797621,77.88880441315814L107.39133373112418,77.54956900826619L107.95496136431757,76.41070470842897L108.43807076421217,75.32029898851033L109.09832027739321,74.22988961856754L109.50091144395992,73.06678226707481L110.41881930371164,72.36406956267274L110.83751411696721,72.12175448543712L111.5782818634325,72.02482840406628L112.4639824298938,72.29137505843755L113.4140975829796,72.12175448543712L114.23538356280187,71.6128922363514L114.20317626948236,70.81324995262366L114.17096897614829,69.868215630946L114.44473096942238,68.6323973791059L115.08887683591456,67.59042932554439L116.16782116235117,66.45153019609825L116.89248526217125,66.35460242659065L117.90701500191062,66.35460242659065L118.72830098171835,65.70033922752918L118.79271556837193,65.07030675575334L119.09868485493644,64.53720140389851L119.43686143487867,63.85870242029523L119.91997083475871,63.13173765367719L120.56411670128,62.08975198918233L121.53033550102555,61.12046000301234L122.85083452737308,60.34502433477428L123.46277310057485,59.90884095912588L123.80094968048797,58.98800746755478L124.83158306691621,58.406427077105036L125.34689976013033,57.77638048058907L124.78327212692238,56.710144998212854L124.39678460701543,55.716604243176334L125.05703412016737,54.91692289388993L125.63676540003507,54.504965067619196L125.33079611344147,53.608349170801375L124.4289919003204,53.19638968644722L124.13912626041565,52.517867044787636L124.26795543370827,51.984741118520105L124.10691896708158,51.08811827064528L124.79937577358214,50.65192247738196L125.41131434678391,49.65836320737071L141.6276865361724,49.56143043303564L141.43444277624076,52.56633299474379L140.45212032980635,54.14147243449224L139.6147307033243,54.74729326394299L135.94309926421556,57.43712411537672Z" /><path stroke-width="1" stroke="white" fill="steelblue" d="M143.7372642489936,49.85222866929689L164.4787611506472,50.11879349062292L164.17279186406813,68.1962251113655L160.80712971153844,68.85048329384153L152.2399896869465,67.08155999421797L138.37474991030467,80.4815204860588L135.94309926421556,57.43712411537672L139.6147307033243,54.74729326394299L140.45212032980635,54.14147243449224L141.43444277624076,52.56633299474379L141.6276865361724,49.56143043303564Z" /><path stroke-width="1" stroke="white" fill="steelblue" d="M80.1117562843865,73.67256786426697L71.35137249983381,85.06112745801147L70.80384851331473,86.39380523308682L67.29325354081811,93.00865249819617L60.94841675568023,103.9361833696621L59.015979156130925,93.12980229616187L35.45634408851038,77.0407152386324L35.97166078173905,76.14416142504524L35.90724619508546,75.68376796735902L36.87346499483101,75.85338668535951L37.823580147945904,75.85338668535951L38.966939060992445,74.83567305251199L40.30354173401429,73.18793947665654L41.17313865378674,72.80023624733985L41.73676628699468,71.75828153151087L42.171564746895456,71.03133440656529L42.96064343335456,70.32861730978038L43.524271066562505,69.26242295639167L44.393867986349505,67.34811069556054L46.11695817926375,65.869963146175L47.80784107885847,64.99761062281686L49.257169278513175,63.66484530798698L50.819223004815285,63.27713073692394L52.2041366177873,62.18668102896481L53.299184590854566,61.362783270284126L55.135000310401665,60.39348911819252L55.87576805692515,60.75697476366622L56.95471238331811,60.78120712559212L57.180163436583825,59.88460853221295L59.88557607594703,58.43065961413049L61.91463555545488,57.38865889145745L62.89695800188929,56.249724050139775L63.299549168456,55.425811252800486Z" /><path stroke-width="1" stroke="white" fill="steelblue" d="M114.20317626948236,70.81324995262366L114.23538356280187,71.6128922363514L113.4140975829796,72.12175448543712L112.4639824298938,72.29137505843755L111.5782818634325,72.02482840406628L110.83751411696721,72.12175448543712L110.41881930371164,72.36406956267274L109.50091144395992,73.06678226707481L109.09832027739321,74.22988961856754L108.43807076421217,75.32029898851033L107.95496136431757,76.41070470842897L107.39133373112418,77.54956900826619L106.58615139797621,77.88880441315814L105.82928000485117,77.76764895195811L105.45889613157487,77.62226233903675L105.02409767168865,78.93073951989027L105.12071955166175,80.16651869957786L104.33164086518809,80.8934454397695L103.63918405868753,80.86921457456265L103.02724548550032,81.32960070563422L103.18828195214155,82.49267856122606L102.99503819219535,82.95306239920501L102.83400172555412,83.9222894065042L102.14154491905356,85.13381911346733L101.83557563245995,86.03034819827008L101.57791728584561,87.0480268748779L101.03039329932653,87.67801684498409L100.22521096619312,88.08993270588871L99.62937603966566,88.59876922753028L99.09795569980633,89.1318352082435L98.92081558650534,90.58564709124403L98.95302287982486,92.03945249491153L98.09952960671217,93.51748134737863L97.50369468018471,94.60782620943974L84.8301247565687,98.55726710297131L84.45974088333605,98.33920106085316L83.2036564436421,98.02421652059274L82.64002881043416,97.5638539534848L82.54340693047561,97.03080174881325L81.31952978408663,96.59466747928127L80.38551827763149,95.91623523493399L80.38551827763149,95.14088237159376L79.59643959115783,94.12322894277713L78.35645879813819,93.12980229616187L78.13100774488703,92.11214259503686L77.37413635170378,91.50639126582973L76.39181390526937,90.99755928008199L75.71546074542857,90.51295665097678L75.20014405224356,89.66490031772082L70.80384851331473,86.39380523308682L71.35137249983381,85.06112745801147L80.1117562843865,73.67256786426697L85.98958731628954,64.51296932169134L90.03160262866004,69.43204501890068Z" /><path stroke-width="1" stroke="white" fill="steelblue" d="M164.17279186406813,68.1962251113655L164.1405845707195,74.59335981413642L163.81851163746614,84.45536303224071L163.54474964422116,89.1318352082435L154.6233293930418,91.28832051198333L137.81112227709673,105.46261644154038L139.37317600339884,97.46693543556648L139.3892796500586,95.18934197952694L138.37474991030467,80.4815204860588L152.2399896869465,67.08155999421797L160.80712971153844,68.85048329384153Z" /><path stroke-width="1" stroke="white" fill="steelblue" d="M60.94841675568023,103.9361833696621L48.854578111946466,112.77970451279543L9.142985441547353,108.4427747387308L21.172409498642082,96.6188971762167L32.670413215848384,85.18228020810238L32.477169455902185,84.50382422772782L32.31613298926095,83.53459894939442L32.799242389170104,82.49267856122606L33.266248142375844,80.91767630319555L33.42728460901708,80.45728959022017L33.87818671556306,79.31843545330958L34.74778363535006,78.15534626923L35.45634408851038,77.0407152386324L59.015979156130925,93.12980229616187Z" /><path stroke-width="1" stroke="white" fill="steelblue" d="M137.81112227709673,105.46261644154038L136.36179407744203,105.48684548039819L135.57271539096837,105.38992931415123L134.5742892978742,105.48684548039819L133.8979361380334,106.06834187400636L133.7207960247615,107.44939166031145L133.78521061140054,108.95157953606031L133.25379027154122,110.88987626790731L132.14263865179964,111.90747744992768L130.96707244541903,111.78633461820755L129.40501871914603,111.76210604648077L128.21334886607656,111.76210604648077L127.34375194630411,112.0528487887168L103.65528770534729,99.86566029670576L97.50369468018471,94.60782620943974L98.09952960671217,93.51748134737863L98.95302287982486,92.03945249491153L98.92081558650534,90.58564709124403L99.09795569980633,89.1318352082435L99.62937603966566,88.59876922753028L100.22521096619312,88.08993270588871L101.03039329932653,87.67801684498409L101.57791728584561,87.0480268748779L101.83557563245995,86.03034819827008L102.14154491905356,85.13381911346733L102.83400172555412,83.9222894065042L122.25499960084562,80.91767630319555L138.37474991030467,80.4815204860588L139.3892796500586,95.18934197952694L139.37317600339884,97.46693543556648Z" /><path stroke-width="1" stroke="white" fill="steelblue" d="M97.50369468018471,94.60782620943974L103.65528770534729,99.86566029670576L96.95617069363652,107.47362055181657L84.21818618338148,123.29470321511508L45.31177584613033,127.48607161151085L48.854578111946466,112.77970451279543L60.94841675568023,103.9361833696621L67.29325354081811,93.00865249819617L70.80384851331473,86.39380523308682L75.20014405224356,89.66490031772082L75.71546074542857,90.51295665097678L76.39181390526937,90.99755928008199L77.37413635170378,91.50639126582973L78.13100774488703,92.11214259503686L78.35645879813819,93.12980229616187L79.59643959115783,94.12322894277713L80.38551827763149,95.14088237159376L80.38551827763149,95.91623523493399L81.31952978408663,96.59466747928127L82.54340693047561,97.03080174881325L82.64002881043416,97.5638539534848L83.2036564436421,98.02421652059274L84.45974088333605,98.33920106085316L84.8301247565687,98.55726710297131Z" /><path stroke-width="1" stroke="white" fill="steelblue" d="M163.19046941763372,101.00444269727086L156.15317582599528,106.21371581067251L153.8020434132195,115.75979608381749L136.31348313746275,124.5545421335919L127.34375194630411,112.0528487887168L128.21334886607656,111.76210604648077L129.40501871914603,111.76210604648077L130.96707244541903,111.78633461820755L132.14263865179964,111.90747744992768L133.25379027154122,110.88987626790731L133.78521061140054,108.95157953606031L133.7207960247615,107.44939166031145L133.8979361380334,106.06834187400636L134.5742892978742,105.48684548039819L135.57271539096837,105.38992931415123L136.36179407744203,105.48684548039819L137.81112227709673,105.46261644154038L154.6233293930418,91.28832051198333L163.54474964422116,89.1318352082435L163.238780357613,98.1211348730485Z" /><path stroke-width="1" stroke="white" fill="steelblue" d="M152.6425808535132,169.324134167573L152.4171298002184,173.46646625908215L150.85507607394538,176.15532054985488L150.27534479407768,176.13109673549843L149.59899163426599,175.7677393060385L149.06757129437756,175.23481434967107L148.72939471446443,174.48387317199922L148.56835824780865,173.3211221572965L147.94031602799078,172.93353757162913L145.42814714860287,171.62543622038902L145.2832143286214,170.65646889946402L145.4925617352419,170.0993113960867L148.21407802126487,165.5935681725514Z" /><path stroke-width="1" stroke="white" fill="steelblue" d="M88.66279266231868,168.33093567064498L79.66085417781142,180.17644899493644L59.724539609320345,176.76091532854298L59.821161489293445,175.06524713692852L59.67622866931197,173.80560224663895L59.94999066258606,172.6912969734767L60.06271618924802,172.32793574147763L59.692332315971726,171.91612585953226L59.3541557360586,171.60121207219163L59.2575338560855,171.11672873316456L59.41857032269763,170.80181417975473L52.1075147378142,157.04217581729063L75.5705279254762,146.31022647314967Z" /><path stroke-width="1" stroke="white" fill="steelblue" d="M120.69294587457262,228.69258054084094L120.59632399459952,228.78946033441935L119.85555624811968,230.2910935017353L119.27582496823743,231.7442803912527L118.61557545508549,233.0763627591623L118.18077699517016,232.73728775676864L107.21419361782318,223.82433432358994L106.44121857802384,222.03202659643102L116.26444304232427,218.03562973373846L120.12931824137922,226.7065385110618Z" /><path stroke-width="1" stroke="white" fill="steelblue" d="M127.34375194630411,112.0528487887168L118.14856970185065,126.32315396930062L111.28841622352775,130.02993954916565L105.82928000485117,115.49328493559551L96.95617069363652,107.47362055181657L103.65528770534729,99.86566029670576Z" /><path stroke-width="1" stroke="white" fill="steelblue" d="M163.19046941763372,119.87857711901052L153.8020434132195,115.75979608381749L156.15317582599528,106.21371581067251L163.19046941763372,101.00444269727086L163.657475170854,103.08816191377446L164.25331009735237,105.00226436161938L164.63979761728842,107.2071026464073Z" /><path stroke-width="1" stroke="white" fill="steelblue" d="M111.28841622352775,130.02993954916565L109.21104580402607,135.7475134437227L90.20874274193193,138.29131720314945L84.21818618338148,123.29470321511508L96.95617069363652,107.47362055181657L105.82928000485117,115.49328493559551Z" /><path stroke-width="1" stroke="white" fill="steelblue" d="M48.854578111946466,112.77970451279543L45.31177584613033,127.48607161151085L43.459856479923474,127.72834560020783L6.002774342297926,132.8645119664816L6.26043268891226,128.4067118145249L6.196018102258677,125.86283126101262L5.841737875685794,121.91372036564098L5.278110242477851,119.1517371763839L4.5373424959834665,116.38973066148174L3.989818509464385,113.91844189746553L9.142985441547353,108.4427747387308Z" /><path stroke-width="1" stroke="white" fill="steelblue" d="M136.31348313746275,124.5545421335919L141.61158288951265,135.26297715454712L142.7549418025883,141.1015917265613L139.53421247001097,144.8082100617612L138.26202438367181,151.10694248892287L130.67720680548518,142.09487264685959L118.14856970185065,126.32315396930062L127.34375194630411,112.0528487887168Z" /><path stroke-width="1" stroke="white" fill="steelblue" d="M151.41870370715333,128.69743976170503L147.6021394480631,135.16606981068253L141.61158288951265,135.26297715454712L136.31348313746275,124.5545421335919L153.8020434132195,115.75979608381749Z" /><path stroke-width="1" stroke="white" fill="steelblue" d="M163.19046941763372,119.87857711901052L162.0793177978776,128.38248447393198L151.41870370715333,128.69743976170503L153.8020434132195,115.75979608381749Z" /><path stroke-width="1" stroke="white" fill="steelblue" d="M90.20874274193193,138.29131720314945L75.5705279254762,146.31022647314967L52.1075147378142,157.04217581729063L44.18452057974355,134.34235623024142L43.7980330598366,133.10678197496236L43.50816741990275,131.82274888747088L43.3149236599711,130.1753028342264L43.41154553992965,128.2613477440973L43.459856479923474,127.72834560020783L45.31177584613033,127.48607161151085L84.21818618338148,123.29470321511508Z" /><path stroke-width="1" stroke="white" fill="steelblue" d="M138.26202438367181,151.10694248892287L140.87081514303281,154.52274294789277L141.96586311610008,156.46076994892246L143.18974026245996,158.25343473491375L127.23102641967125,167.28928524056573L126.79622795978503,159.9007396894758L120.75736046121165,146.3586785008847L109.21104580402607,135.7475134437227L111.28841622352775,130.02993954916565L118.14856970185065,126.32315396930062L130.67720680548518,142.09487264685959Z" /><path stroke-width="1" stroke="white" fill="steelblue" d="M52.1075147378142,157.04217581729063L51.83375274454011,157.478229542623L50.93194853144814,157.81738203955683L49.82079691172112,158.1323090443202L48.967303638579324,158.71371195154643L48.097706718792324,159.51313926743933L47.22810979899077,159.7069395356757L46.358512879218324,159.949189710047L44.95749561955745,160.28833965384183L43.7014111798635,160.31256463641876L42.42922309349524,161.06353820968798L42.171564746895456,160.38523957344296L41.46300429372059,159.75538958484685L40.46457820062642,159.17398852273072L39.22459740760678,158.1080839008264L38.41941507447336,158.1323090443202L37.56592180133157,158.05963360850728L6.743542088777758,150.0894631361807L6.485883742192527,144.73553167376303L6.051085282306303,141.41653478332591L6.002774342297926,136.32895604461555L6.002774342297926,132.8645119664816L43.459856479923474,127.72834560020783L43.41154553992965,128.2613477440973L43.3149236599711,130.1753028342264L43.50816741990275,131.82274888747088L43.7980330598366,133.10678197496236L44.18452057974355,134.34235623024142Z" /><path stroke-width="1" stroke="white" fill="steelblue" d="M157.0871873324213,159.99763972347682L138.26202438367181,151.10694248892287L139.53421247001097,144.8082100617612L142.7549418025883,141.1015917265613L141.61158288951265,135.26297715454712L147.6021394480631,135.16606981068253L151.41870370715333,128.69743976170503L162.0793177978776,128.38248447393198L160.29181301833887,137.75833138458984L158.77807023204514,148.51478648644297L158.2144425988372,152.0275163264705Z" /><path stroke-width="1" stroke="white" fill="steelblue" d="M127.23102641967125,167.28928524056573L127.45647747293697,172.8366413537933L101.43298446589324,177.87520680684247L104.31553721852833,172.20681524152678L103.41373300540727,153.96555806652032L90.20874274193193,138.29131720314945L109.21104580402607,135.7475134437227L120.75736046121165,146.3586785008847L126.79622795978503,159.9007396894758Z" /><path stroke-width="1" stroke="white" fill="steelblue" d="M101.43298446589324,177.87520680684247L98.85640099986631,178.09321991524484L98.74367547320435,176.6397964620428L98.21225513334502,175.01679934577623L97.37486550689209,174.16896184499092L96.3281284738041,173.27267410908462L95.18476956072845,172.93353757162913L94.21855076098291,173.3211221572965L93.57440489446162,173.46646625908215L93.1396064345754,173.1515539573138L91.8030037615681,171.18940127955466L90.51471202852554,169.92974153362593L88.66279266231868,168.33093567064498L75.5705279254762,146.31022647314967L90.20874274193193,138.29131720314945L103.41373300540727,153.96555806652032L104.31553721852833,172.20681524152678Z" /><path stroke-width="1" stroke="white" fill="steelblue" d="M52.1075147378142,157.04217581729063L59.41857032269763,170.80181417975473L59.2575338560855,171.11672873316456L59.3541557360586,171.60121207219163L59.692332315971726,171.91612585953226L60.06271618924802,172.32793574147763L59.94999066258606,172.6912969734767L59.67622866931197,173.80560224663895L59.821161489293445,175.06524713692852L59.724539609320345,176.76091532854298L58.56507704958494,178.4807984177187L57.566650956490776,179.2075068785598L56.825883210025495,180.20067251126602L56.40718839678448,180.32179006616389L55.21551854374411,179.25595405218155L54.70020185051544,179.3770719550157L54.490854443924036,179.66775473980488L54.16878151065612,180.3460135717869L53.66956846413086,180.83048330966267L52.832178837648826,180.58824852992984L52.17192932446778,180.22489602582027L50.51325371819257,179.01371811270292L50.014040671652765,179.2075068785598L49.65976044507988,179.6193076268446L48.69354164530523,180.56402504214202L47.93667025218019,180.58824852992984L47.53407908558438,180.22489602582027L38.693177067747456,181.1938351447443L26.1323326707643,178.98949450894725L25.423772217603982,179.0621653148737L24.618589884470566,179.25595405218155L23.78120025798853,179.74042539584843L19.980739645572612,181.21805858615153L19.320490132420673,181.53296316198794L17.30753429957258,182.0174311515293L15.793791513278848,181.7751972459464L4.843311782577075,180.7820363679948L5.729012349052937,173.99939408241517L6.582505622165627,166.87746904317828L7.274962428666186,157.26020275238807L6.743542088777758,150.0894631361807L37.56592180133157,158.05963360850728L38.41941507447336,158.1323090443202L39.22459740760678,158.1080839008264L40.46457820062642,159.17398852273072L41.46300429372059,159.75538958484685L42.171564746895456,160.38523957344296L42.42922309349524,161.06353820968798L43.7014111798635,160.31256463641876L44.95749561955745,160.28833965384183L46.358512879218324,159.949189710047L47.22810979899077,159.7069395356757L48.097706718792324,159.51313926743933L48.967303638579324,158.71371195154643L49.82079691172112,158.1323090443202L50.93194853144814,157.81738203955683L51.83375274454011,157.478229542623Z" /><path stroke-width="1" stroke="white" fill="steelblue" d="M157.0871873324213,159.99763972347682L154.70384762635513,171.18940127955466L152.6425808535132,169.324134167573L148.21407802126487,165.5935681725514L145.2187997419678,162.66237945040302L143.18974026245996,158.25343473491375L141.96586311610008,156.46076994892246L140.87081514303281,154.52274294789277L138.26202438367181,151.10694248892287Z" /><path stroke-width="1" stroke="white" fill="steelblue" d="M148.21407802126487,165.5935681725514L145.4925617352419,170.0993113960867L145.2832143286214,170.65646889946402L145.42814714860287,171.62543622038902L147.94031602799078,172.93353757162913L148.56835824780865,173.3211221572965L148.72939471446443,174.48387317199922L149.06757129437756,175.23481434967107L149.59899163426599,175.7677393060385L150.27534479407768,176.13109673549843L150.85507607394538,176.15532054985488L146.813060761604,184.36709077875275L144.42972105549416,190.42283721177955L142.8837709758809,192.14264888441903L141.85313758946722,192.4090977764081L141.82093029613316,191.80353180092425L141.1284734896326,190.44705997377787L140.53263856310514,189.1874739864379L139.7918708166253,188.09744376067465L138.56799367023632,188.02477495059975L135.68544091760123,188.00055201035138L134.68701482453616,188.19433548247798L133.97845437137585,188.29122717576138L131.77225477855245,189.28436538734968L131.3857672586455,187.32230895929206L131.19252349871385,185.65091833091537L131.51459643196722,184.24597471335255L131.35355996532599,183.15592811826355L131.35355996532599,182.81680177426279L131.19252349871385,182.79257845060783L130.93486515209952,182.21121814754406L130.25851199225872,182.04165453226415L129.77540259236412,180.37023707563458L128.34217803939828,178.69881112460644L128.14893427943753,177.41495643662165L127.4242701796029,176.20376817318356L127.24713006633101,174.41120135409437L127.45647747293697,172.8366413537933L127.23102641967125,167.28928524056573L143.18974026245996,158.25343473491375L145.2187997419678,162.66237945040302Z" /><path stroke-width="1" stroke="white" fill="steelblue" d="M98.85640099986631,178.09321991524484L96.71461599371105,182.40500502938994L96.45695764709671,182.96214167879043L96.4247503537772,183.97951921252206L96.76292693369032,184.68199234012718L101.1753261192789,189.4054795983866L98.03511502007314,194.46801376229632L91.07833966173348,200.64468449336346L86.73035506276938,204.85928747066828L84.44363723666174,203.67242196917323L82.64002881043416,202.77621457471832L84.12156430340838,187.2254169807402L80.91693861751992,184.43976039659537L79.66085417781142,180.17644899493644L88.66279266231868,168.33093567064498L90.51471202852554,169.92974153362593L91.8030037615681,171.18940127955466L93.1396064345754,173.1515539573138L93.57440489446162,173.46646625908215L94.21855076098291,173.3211221572965L95.18476956072845,172.93353757162913L96.3281284738041,173.27267410908462L97.37486550689209,174.16896184499092L98.21225513334502,175.01679934577623L98.74367547320435,176.6397964620428Z" /><path stroke-width="1" stroke="white" fill="steelblue" d="M154.70384762635513,171.18940127955466L155.95993206603453,171.33474632412253L157.2643274457223,172.5217284485334L157.9406806055631,174.41120135409437L159.00352128531085,175.8646346598216L160.00194737840502,176.88203415042335L161.33855005142686,178.81992923263533L161.69283027797064,179.69197829361474L149.77613174753787,188.26700425512536L148.40732178119652,185.57824898057333L146.813060761604,184.36709077875275L150.85507607394538,176.15532054985488L152.4171298002184,173.46646625908215L152.6425808535132,169.324134167573Z" /><path stroke-width="1" stroke="white" fill="steelblue" d="M131.77225477855245,189.28436538734968L131.85277301188034,190.51972824905897L131.74004748523294,192.43332039225425L131.41797455196502,193.83822906272144L131.079797972081,195.8002466581347L131.25693808535289,196.98714051705065L131.40187090530526,198.0771413139355L131.41797455196502,199.21558274002382L131.30524902533216,200.7900165278279L130.67720680548518,202.7035490034832L130.06526823231252,204.64129208670238L125.05703412016737,206.67591006393013L120.01659271473181,208.71051548443575L115.169395069257,201.46823184107416L102.97893454552104,202.19488955625457L98.03511502007314,194.46801376229632L101.1753261192789,189.4054795983866L96.76292693369032,184.68199234012718L96.4247503537772,183.97951921252206L96.45695764709671,182.96214167879043L96.71461599371105,182.40500502938994L98.85640099986631,178.09321991524484L101.43298446589324,177.87520680684247L127.45647747293697,172.8366413537933L127.24713006633101,174.41120135409437L127.4242701796029,176.20376817318356L128.14893427943753,177.41495643662165L128.34217803939828,178.69881112460644L129.77540259236412,180.37023707563458L130.25851199225872,182.04165453226415L130.93486515209952,182.21121814754406L131.19252349871385,182.79257845060783L131.35355996532599,182.81680177426279L131.35355996532599,183.15592811826355L131.51459643196722,184.24597471335255L131.19252349871385,185.65091833091537L131.3857672586455,187.32230895929206Z" /><path stroke-width="1" stroke="white" fill="steelblue" d="M79.66085417781142,180.17644899493644L80.91693861751992,184.43976039659537L84.12156430340838,187.2254169807402L82.64002881043416,202.77621457471832L84.44363723666174,203.67242196917323L82.15691941056866,204.71395723071328L80.93304226417968,205.29527780606622L74.81365653233661,208.83162255404022L63.992005974956555,212.34370822586243L55.44096959702438,201.03223644281024L56.02070087687753,199.67580262542106L56.584328510056366,198.53736278972065L57.405614489878644,196.98714051705065L58.17858952967799,195.63069004343197L58.19469317633775,193.93511909488916L58.71000986956642,192.0942036081542L59.88557607594703,190.6892874956975L60.77127664240834,187.6614306595402L60.35258182915277,186.13538025634261L59.30584479607933,183.0590349127997L56.40718839678448,180.32179006616389L56.825883210025495,180.20067251126602L57.566650956490776,179.2075068785598L58.56507704958494,178.4807984177187L59.724539609320345,176.76091532854298Z" /><path stroke-width="1" stroke="white" fill="steelblue" d="M157.07108368576155,204.71395723071328L156.89394357248966,204.61707036846929L156.73290710586298,204.5201834777581L148.69718742113037,198.70691790819365L146.8452680548944,194.39534635842028L151.70856934708718,191.658195801072L149.77613174753787,188.26700425512536L161.69283027797064,179.69197829361474L161.93438497792522,180.90315370879762L161.85386674461188,182.04165453226415L161.66062298468023,182.76835512515208L161.38686099140614,183.68884023822102L161.7733485113131,185.06956307884866L162.4497016711539,186.01426484185504L162.94891471767914,187.95210612448318L162.90060377769987,188.63034787762626L162.80398189771222,189.86571319392715L162.69125637107936,190.81040118981946L162.86839648438036,192.2637620438618L162.5785308444465,194.03200909855877L162.15983603122004,194.9524627116134L161.99879956459336,195.53380051010936L161.85386674461188,196.06669259060982L162.24035426451883,197.05980734904915L162.77177460440726,197.90758587132405L162.94891471767914,198.12558571008594L163.1582621243142,198.4162519373749L163.4642314108787,198.10136351290566L163.94734081078786,197.59269696061347L164.18889551071334,197.32625226259188L164.33382833068026,197.4715857609608L164.6236939706141,197.8591414431139L164.7847304372408,198.319363223447L164.63979761728842,198.80380650814368L164.2049991573731,199.23980485528227L163.6413715241797,199.55469219158113L163.09384753764607,199.74846886434534L162.6590490777453,199.9906895450149L162.2564579111786,200.28135412676602L161.85386674461188,200.62046248138904L161.46737922471948,201.08068040442777L161.1292026447918,201.78311704772568L160.8232333581982,202.3886646763549L160.53336771826434,202.46133031700992L160.2757093716791,202.63088341623552L159.9697400850564,202.82465827996202L159.72818538513093,202.87310197809893L159.37390515855805,202.84888012991723L159.1645577519521,202.89732382449802L158.77807023204514,203.01843302975976L158.26275353881647,203.33331675518093L157.74743684560235,203.89041799393817L157.19991285908327,204.49596175063198Z" /><path stroke-width="1" stroke="white" fill="steelblue" d="M149.77613174753787,188.26700425512536L151.70856934708718,191.658195801072L146.8452680548944,194.39534635842028L144.42972105549416,190.42283721177955L146.813060761604,184.36709077875275L148.40732178119652,185.57824898057333Z" /><path stroke-width="1" stroke="white" fill="steelblue" d="M146.0400857217901,203.64820017974125L145.84684196182934,203.98730506976972L145.6697018485138,205.2710561358872L145.589183615215,206.31258634614278L145.71801278853673,207.9596506600683L141.24119901626545,208.22608676122218L140.6453640897671,206.96656874986547L140.5487422097649,203.47864760391167L140.75808961639996,201.34712206608674L141.03185160967405,199.45780381246914L142.35235063599248,197.27780774888197L142.77104544921895,198.92491721799888L144.05933718226152,200.69312851197355L145.6858054951881,202.67932714285416Z" /><path stroke-width="1" stroke="white" fill="steelblue" d="M157.07108368576155,204.71395723071328L156.9583581591287,204.85928747066828L156.71680345920322,205.24683446394738L156.29810864594765,205.2710561358872L155.94382841937477,205.31949947445173L155.5251336061483,205.5374944098894L155.23526796621445,205.77971083574812L155.09033514626208,205.87659735624584L154.94540232629515,205.9734838482691L154.76826221299416,206.2399215545356L154.59112209972227,206.55480220249046L154.3495673997677,206.84546099520958L154.0758054064936,206.74857475944918L150.82286878062587,204.9803959550154L146.0400857217901,203.64820017974125L148.69718742113037,198.70691790819365L156.73290710586298,204.5201834777581L156.89394357248966,204.61707036846929Z" /><path stroke-width="1" stroke="white" fill="steelblue" d="M106.44121857802384,222.03202659643102L107.21419361782318,223.82433432358994L105.37837789827609,224.7447047811438L104.057878871914,225.66507267354427L95.55515343397565,217.55121470460654L86.73035506276938,204.85928747066828L91.07833966173348,200.64468449336346L90.19263909527217,203.81775266836485L98.27666971998406,213.79697411649795Z" /><path stroke-width="1" stroke="white" fill="steelblue" d="M120.33866564798518,213.9423003534339L120.08100730137085,215.41978012847358L119.96828177473799,216.12218622568798L116.26444304232427,218.03562973373846L106.44121857802384,222.03202659643102L98.27666971998406,213.79697411649795L90.19263909527217,203.81775266836485L91.07833966173348,200.64468449336346L92.01235116815951,201.78311704772568L92.88194808796106,202.3159990196673L94.42789816758886,202.99421119226463L96.05436648053,203.67242196917323L98.38939524661691,205.8039324685251L99.66158333298517,207.76587881491832L101.27194799928111,209.82469884705824L102.94672725218697,211.54440925681047L105.33006695828226,213.26411069999813L107.79392489769089,214.1118475489602L110.6281667103467,214.32983667228473L113.07592100308102,214.16028958880452L114.75070025600144,213.99074241818198L117.79428947527776,213.89385828156628L120.00048906807206,213.99074241818198Z" /><path stroke-width="1" stroke="white" fill="steelblue" d="M141.24119901626545,208.22608676122218L140.80640055637923,208.39563689531315L136.97373265062924,202.0011143222273L137.9399514504039,201.68622932388826L140.75808961639996,201.34712206608674L140.5487422097649,203.47864760391167L140.6453640897671,206.96656874986547Z" /><path stroke-width="1" stroke="white" fill="steelblue" d="M140.80640055637923,208.39563689531315L136.05582479084842,209.5582640376124L135.57271539096837,207.66899284963256L134.31663095125987,202.9215456691145L136.1041357308277,202.34022090700455L136.97373265062924,202.0011143222273Z" /><path stroke-width="1" stroke="white" fill="steelblue" d="M135.57271539096837,207.66899284963256L133.54365591146052,208.34719400874928L132.11043135846558,209.02539377290304L128.55152544600423,210.43023170433662L128.6803546193114,209.94580550747014L129.26008589916455,209.14650072685617L129.69488435907988,208.34719400874928L129.48553695244482,207.7174358358261L129.26008589916455,206.62746692470319L129.53384789243864,205.68282428676685L130.06526823231252,204.64129208670238L134.31663095125987,202.9215456691145Z" /><path stroke-width="1" stroke="white" fill="steelblue" d="M150.82286878062587,204.9803959550154L149.4540588142845,206.74857475944918L149.3574369343114,209.14650072685617L145.71801278853673,207.9596506600683L145.589183615215,206.31258634614278L145.6697018485138,205.2710561358872L145.84684196182934,203.98730506976972L146.0400857217901,203.64820017974125Z" /><path stroke-width="1" stroke="white" fill="steelblue" d="M86.73035506276938,204.85928747066828L95.55515343397565,217.55121470460654L104.057878871914,225.66507267354427L117.7620821819437,236.03114448451197L118.59947180841118,236.6366292821549L119.05037391498627,236.61240991154227L119.48517237487249,236.8061648267667L119.91997083475871,236.8061648267667L120.14542188802443,236.8788228906942L120.41918388129852,237.09679698666878L120.35476929464494,238.11400753437374L120.14542188802443,238.59839240949805L120.00048906807206,238.9616806001759L119.56569060817128,239.54294087502785L119.50127602153225,239.63981748816695L117.92311864857038,241.8437527701917L114.87952942932316,239.93044715730684L100.2896255528467,230.2668736661035L91.2071688350261,220.2154885661239L86.02179460963816,212.65858304548783L80.93304226417968,205.29527780606622L82.15691941056866,204.71395723071328L84.44363723666174,203.67242196917323Z" /><path stroke-width="1" stroke="white" fill="steelblue" d="M128.55152544600423,210.43023170433662L128.42269627271162,211.78662127017196L128.48711085935065,212.90079424067517L128.58373273932375,213.6758688701484L129.16346401919145,214.2329526352587L128.27776345273014,214.49938366863898L127.56920299958438,214.6931515577653L124.67054660027497,216.09796535068017L125.05703412016737,206.67591006393013L130.06526823231252,204.64129208670238L129.53384789243864,205.68282428676685L129.26008589916455,206.62746692470319L129.48553695244482,207.7174358358261L129.69488435907988,208.34719400874928L129.26008589916455,209.14650072685617L128.6803546193114,209.94580550747014Z" /><path stroke-width="1" stroke="white" fill="steelblue" d="M154.3495673997677,206.84546099520958L154.10801269981312,207.23300565353566L153.88256164656195,207.6932143436261L153.47997047996614,208.0080936035647L153.10958660671895,208.29875111507135L152.70699544015224,208.49252264706774L152.40102615355863,208.68629406519358L152.07895322030527,208.75895831763228L151.75688028706645,208.88006536943612L151.61194746708497,208.95272957917769L151.45091100047284,209.02539377290304L151.161045360539,209.2191648778844L150.90338701392466,209.43715723487549L150.66183231399918,209.65514944776442L150.46858855403843,209.8973628486383L150.35586302737647,210.1637973841116L150.29144844073744,210.47867428489008L150.17872291410458,210.793550885046L150.08210103413148,211.08420594141353L150.04989374081197,211.37486074164735L150.0337900941522,211.71395768483853L149.96937550748407,212.1499389566834L149.9049609208305,212.2952659192415L149.43795516762475,212.07727545139096L148.50394366116961,211.93194839280113L149.3574369343114,209.14650072685617L149.4540588142845,206.74857475944918L150.82286878062587,204.9803959550154L154.0758054064936,206.74857475944918Z" /><path stroke-width="1" stroke="white" fill="steelblue" d="M100.2896255528467,230.2668736661035L100.37014378616004,231.40520402200673L100.43455837279907,232.30133367107192L100.41845472613932,234.0935856789656L100.61169848610007,235.66785307359532L99.1301629931113,237.60540265173586L94.66945286752889,232.664628782426L92.88194808796106,229.83091632094693L90.07991356863931,226.125255657882L87.21346446266398,222.73441862181608L84.70129558327608,221.76560164416514L79.45150677120546,216.89725328735585L74.81365653233661,208.83162255404022L80.93304226417968,205.29527780606622L86.02179460963816,212.65858304548783L91.2071688350261,220.2154885661239Z" /><path stroke-width="1" stroke="white" fill="steelblue" d="M124.67054660027497,216.09796535068017L120.12931824137922,219.87640035998265L119.8877635414392,219.07711963861948L119.7911416614661,218.81069230137837L119.83945260144537,217.57543547295973L119.90386718809896,217.0183573512877L119.96828177473799,216.12218622568798L120.08100730137085,215.41978012847358L120.33866564798518,213.9423003534339L120.17762918137305,212.2952659192415L120.03269636139157,211.25375460601936L120.24204376801208,209.2191648778844L120.01659271473181,208.71051548443575L125.05703412016737,206.67591006393013Z" /><path stroke-width="1" stroke="white" fill="steelblue" d="M136.05582479084842,209.5582640376124L137.21528735058382,213.5063214505608L134.3005273046292,213.60320570099066L132.17484594511916,213.7000899229697L129.16346401919145,214.2329526352587L128.58373273932375,213.6758688701484L128.48711085935065,212.90079424067517L128.42269627271162,211.78662127017196L128.55152544600423,210.43023170433662L132.11043135846558,209.02539377290304L133.54365591146052,208.34719400874928L135.57271539096837,207.66899284963256Z" /><path stroke-width="1" stroke="white" fill="steelblue" d="M146.23332948172174,212.1499389566834L143.64064236903505,212.22260244596328L142.35235063599248,211.71395768483853L141.24119901626545,208.22608676122218L145.71801278853673,207.9596506600683L145.75022008185624,209.58248539281885L145.2832143286214,210.8904359322878L145.2187997419678,211.7381788817238Z" /><path stroke-width="1" stroke="white" fill="steelblue" d="M149.3574369343114,209.14650072685617L148.50394366116961,211.93194839280113L146.23332948172174,212.1499389566834L145.2187997419678,211.7381788817238L145.2832143286214,210.8904359322878L145.75022008185624,209.58248539281885L145.71801278853673,207.9596506600683Z" /><path stroke-width="1" stroke="white" fill="steelblue" d="M142.35235063599248,211.71395768483853L137.21528735058382,213.5063214505608L136.05582479084842,209.5582640376124L140.80640055637923,208.39563689531315L141.24119901626545,208.22608676122218Z" /><path stroke-width="1" stroke="white" fill="steelblue" d="M99.1301629931113,237.60540265173586L94.18634346763429,243.70860961491599L90.06380992197955,240.72967743039044L89.75784063538595,240.29373388452586L89.48407864211185,239.5187217173043L89.21031664886686,238.11400753437374L88.43734160902386,236.07958330913607L87.80929938920599,235.03814701550073L87.18125716934446,234.02092700282265L86.23114201622957,233.02792349439915L84.6529846432968,231.47786327328868L82.8976871570485,230.63017101428886L80.35331098434108,230.46063230150867L79.35488489124691,229.6613771980301L77.63179469831812,229.0800995446425L75.95701544538315,226.48855756099874L65.65068158120266,214.62048861267976L63.992005974956555,212.34370822586243L74.81365653233661,208.83162255404022L79.45150677120546,216.89725328735585L84.70129558327608,221.76560164416514L87.21346446266398,222.73441862181608L90.07991356863931,226.125255657882L92.88194808796106,229.83091632094693L94.66945286752889,232.664628782426Z" /><path stroke-width="1" stroke="white" fill="steelblue" d="M143.64064236903505,212.22260244596328L142.38455792932655,214.32983667228473L137.0864581772621,214.91114029701566L137.21528735058382,213.5063214505608L142.35235063599248,211.71395768483853Z" /><path stroke-width="1" stroke="white" fill="steelblue" d="M149.9049609208305,212.2952659192415L149.66340622090502,212.73124642272523L149.21250411435904,212.99767866896582L149.08367494103732,213.19144744013283L149.19640046767017,213.6758688701484L149.18029682101042,213.96652138669015L149.1480895276909,214.2329526352587L148.18187072791625,214.18451060606276L146.49098782833607,214.16028958880452L146.23332948172174,212.1499389566834L148.50394366116961,211.93194839280113L149.43795516762475,212.07727545139096Z" /><path stroke-width="1" stroke="white" fill="steelblue" d="M146.49098782833607,214.16028958880452L144.1076481222408,214.28139465732056L142.38455792932655,214.32983667228473L143.64064236903505,212.22260244596328L146.23332948172174,212.1499389566834Z" /><path stroke-width="1" stroke="white" fill="steelblue" d="M137.0864581772621,214.91114029701566L136.94152535730973,215.9768609489456L135.76595915094367,216.219069707955L135.2184351643955,216.31595316178027L133.26989391818643,216.6308241902534L132.2392605317873,215.8073147118448L130.0330609389639,214.52360466099526L129.16346401919145,214.2329526352587L132.17484594511916,213.7000899229697L134.3005273046292,213.60320570099066L137.21528735058382,213.5063214505608Z" /><path stroke-width="1" stroke="white" fill="steelblue" d="M149.1480895276909,214.2329526352587L148.9548457677156,214.49938366863898L148.7454983611242,214.83847739993325L148.4717363678501,215.22601266608217L148.1657670812565,215.63776838762533L147.9725233213103,215.92841917580517L147.94031602799078,216.0495235953167L147.89200508799695,216.29173230099877L147.68265768137644,216.70348669260602L147.44110298142186,217.0183573512877L147.18344463480753,217.26056534582312L146.90968264156254,217.4301108362306L146.60371335496893,217.50277316258507L146.3460550083546,217.69653928800835L146.02398207510123,217.76920155572043L145.71801278853673,217.9145260431178L145.31542162197002,218.0598504665195L144.84841586872062,218.27783698165695L144.26868458888202,218.32627840989153L143.7372642489936,218.35049912136128L143.2863621424185,218.39894053895114L142.8515636825323,218.61692683009642L143.8338861289667,215.54088473467527L144.1076481222408,214.28139465732056L146.49098782833607,214.16028958880452L148.18187072791625,214.18451060606276Z" /><path stroke-width="1" stroke="white" fill="steelblue" d="M130.0330609389639,214.52360466099526L130.24240834559896,217.18790296613224L129.77540259236412,217.23634455436513L129.5499515390984,217.26056534582312L124.57392472030187,218.5442647490545L124.71885754025425,218.22939554628465L124.96041224020883,217.50277316258507L124.86379036023573,217.0183573512877L124.65444295360066,216.55816167188823L124.67054660027497,216.09796535068017L127.56920299958438,214.6931515577653L128.27776345273014,214.49938366863898L129.16346401919145,214.2329526352587Z" /><path stroke-width="1" stroke="white" fill="steelblue" d="M142.8515636825323,218.61692683009642L142.41676522264606,218.83491297728324L141.933655822766,218.78647162368543L141.418339129581,218.64114752023306L140.87081514303281,218.59270613819535L140.35549844983325,218.47160265199454L141.1445771363069,216.6550450261475L141.75651570949412,215.3228964114951L142.38455792932655,214.32983667228473L144.1076481222408,214.28139465732056L143.8338861289667,215.54088473467527Z" /><path stroke-width="1" stroke="white" fill="steelblue" d="M141.75651570949412,215.3228964114951L140.61315679641848,215.2744545423502L136.94152535730973,215.9768609489456L137.0864581772621,214.91114029701566L142.38455792932655,214.32983667228473Z" /><path stroke-width="1" stroke="white" fill="steelblue" d="M133.26989391818643,216.6308241902534L131.8849803051853,216.87303246922784L130.24240834559896,217.18790296613224L130.0330609389639,214.52360466099526L132.2392605317873,215.8073147118448Z" /><path stroke-width="1" stroke="white" fill="steelblue" d="M141.75651570949412,215.3228964114951L141.1445771363069,216.6550450261475L140.35549844983325,218.47160265199454L139.8884926965984,218.35049912136128L139.45369423669763,218.30205769666827L139.06720671680523,218.22939554628465L138.69682284355804,218.22939554628465L138.3103353236511,218.32627840989153L137.90774415708438,218.44738194943602L137.5373602838372,218.6895888951658L137.19918370392406,218.98023699541773L136.9093180639902,219.39198803264117L136.6033487773966,219.900620957691L136.26517219746893,220.45769421439581L135.78206279757433,220.84522288197513L135.250642457715,220.94210497777385L134.76753305783495,220.94210497777385L134.38104553794255,220.89366393344062L134.0911798980087,220.699899684947L133.8174179047346,220.48191476945613L133.51144861812645,220.3850325385738L133.20547933153284,220.3608119764267L133.55975955812028,219.7068561262713L133.97845437137585,218.98023699541773L133.91403978472226,218.25361626485937L133.30210121153505,217.309006923404L133.57586320480914,216.75192835196322L133.26989391818643,216.6308241902534L135.2184351643955,216.31595316178027L135.76595915094367,216.219069707955L136.94152535730973,215.9768609489456L140.61315679641848,215.2744545423502Z" /><path stroke-width="1" stroke="white" fill="steelblue" d="M124.57392472030187,218.5442647490545L124.31626637368754,219.6099736679189L123.51108404055412,219.77951795139052L123.04407828734838,219.63419428517773L122.44824336080637,219.9490621477653L122.25499960084562,220.0701650918727L121.8202011409594,220.28815027926612L121.53033550102555,220.578796971884L121.25657350778056,221.0147665309796L121.25657350778056,221.160089589388L120.98281151450647,221.0874280681728L120.59632399459952,220.77256129145098L120.4674948213069,220.33659141248245L120.12931824137922,219.87640035998265L124.67054660027497,216.09796535068017L124.65444295360066,216.55816167188823L124.86379036023573,217.0183573512877L124.96041224020883,217.50277316258507L124.71885754025425,218.22939554628465Z" /><path stroke-width="1" stroke="white" fill="steelblue" d="M120.12931824137922,219.87640035998265L120.4674948213069,220.33659141248245L120.59632399459952,220.77256129145098L120.98281151450647,221.0874280681728L121.25657350778056,221.160089589388L121.32098809441959,221.71716072067102L121.59475008766458,221.78982210326285L121.8202011409594,221.3780740570528L122.04565219423966,221.28119208919816L122.25499960084562,221.23275109459973L122.25499960084562,221.0874280681728L122.46434700748068,220.94210497777385L122.75421264741453,220.55457642393776L123.39835851392127,220.55457642393776L124.54171742698236,220.77256129145098L124.97651588686858,221.160089589388L125.12144870685006,221.3780740570528L125.41131434678391,221.93514482049432L125.41131434678391,222.37111258837285L125.55624716673628,222.80707978054124L125.62066175337532,223.17038533426967L125.62066175337532,223.60635147105495L124.87989400689548,224.1391981898596L124.60613201362139,224.42984149224867L122.5931761807733,226.46433744656497L122.5931761807733,226.75497870262916L120.69294587457262,228.69258054084094L120.12931824137922,226.7065385110618L116.26444304232427,218.03562973373846L119.96828177473799,216.12218622568798L119.90386718809896,217.0183573512877L119.83945260144537,217.57543547295973L119.7911416614661,218.81069230137837L119.8877635414392,219.07711963861948Z" /><path stroke-width="1" stroke="white" fill="steelblue" d="M133.20547933153284,220.3608119764267L132.9478209849185,220.3608119764267L132.641851698354,220.3608119764267L132.31977876510064,220.3608119764267L131.94939489185344,220.3608119764267L131.7883584252122,220.3608119764267L131.82056571853172,219.3677673976108L131.8849803051853,216.87303246922784L133.26989391818643,216.6308241902534L133.57586320480914,216.75192835196322L133.30210121153505,217.309006923404L133.91403978472226,218.25361626485937L133.97845437137585,218.98023699541773L133.55975955812028,219.7068561262713Z" /><path stroke-width="1" stroke="white" fill="steelblue" d="M131.7883584252122,220.3608119764267L131.57901101860625,220.33659141248245L131.22473079203337,220.28815027926612L130.91876150543976,220.2154885661239L130.78993233214715,220.1912679915331L130.6288958655059,220.1670474151524L130.33903022557206,220.2397091389521L130.04916458562366,220.3850325385738L129.79150623903843,220.33659141248245L129.4533296591253,220.45769421439581L128.92190931923687,220.699899684947L128.42269627271162,221.0147665309796L129.01853119923908,219.3677673976108L129.16346401919145,218.9560163301685L129.5499515390984,217.26056534582312L129.77540259236412,217.23634455436513L130.24240834559896,217.18790296613224L131.8849803051853,216.87303246922784L131.82056571853172,219.3677673976108Z" /><path stroke-width="1" stroke="white" fill="steelblue" d="M128.42269627271162,221.0147665309796L127.69803217287699,221.0147665309796L127.13440453966905,220.94210497777385L126.34532585320994,220.65145860504708L126.20039303324302,220.5061353227211L125.76559457332769,220.2154885661239L125.18586329348909,219.92484155362217L124.25185178703396,219.7068561262713L123.51108404055412,219.77951795139052L124.31626637368754,219.6099736679189L124.57392472030187,218.5442647490545L129.5499515390984,217.26056534582312L129.16346401919145,218.9560163301685L129.01853119923908,219.3677673976108Z" /><path stroke-width="1" stroke="white" fill="steelblue" d="M118.61557545508549,233.0763627591623L118.56726451507711,233.19746088998545L118.34181346182595,235.06236650145365L118.42233169512474,235.86160854244918L118.77661192171217,236.5155324113457L119.05037391498627,236.61240991154227L118.59947180841118,236.6366292821549L117.7620821819437,236.03114448451197L104.057878871914,225.66507267354427L105.37837789827609,224.7447047811438L107.21419361782318,223.82433432358994L118.18077699517016,232.73728775676864Z" /><path stroke-width="1" stroke="white" fill="steelblue" d="M117.92311864857038,241.8437527701917L117.4883201886696,242.44922692437285L117.13403996209672,243.0304810696689L116.84417432216287,243.51485874382888L116.26444304232427,244.02345453837188L115.91016281573684,244.45939316847034L115.68471176244202,245.04064378169642L115.47536435582151,245.76720561217007L115.08887683591456,246.20314194462662L111.73931833007373,243.92657920921556L100.61169848610007,235.66785307359532L100.41845472613932,234.0935856789656L100.43455837279907,232.30133367107192L100.37014378616004,231.40520402200673L100.2896255528467,230.2668736661035L114.87952942932316,239.93044715730684Z" /></svg>