<?xml version="1.0" standalone="no"?><!DOCTYPE svg PUBLIC "-//W3C//DTD SVG 1.1//EN" "http://www.w3.org/Graphics/SVG/1.1/DTD/svg11.dtd"><svg width="167" height="255" version="1.1" xmlns="http://www.w3.org/2000/svg" xmlns:xlink="http://www.w3.org/1999/xlink"><path stroke-width="1" stroke="white" fill="steelblue" d="M92.37727865099441,215.1467085259137L96.58941623824649,215.7765579685838L96.98678770876722,215.84923287508354L105.39516802452272,217.0847053606667L106.74623102426995,217.3511795894301L107.62044825940393,217.49652913448517L107.15949735359754,217.81145306588587L105.06137598940404,220.30661558828433L100.13396975514479,222.02657784033363L99.35512167296838,222.19615140020323L98.73522217897698,222.65642232552636L97.97226895560743,222.87444531084475L97.32057974394411,223.33471587904205L96.49404708534712,223.64963770715622L95.65161956788506,224.23103155328863L94.42771543870913,224.52172833135046L93.28328560374212,225.10312159752357L92.04348661575932,225.58761569067792L90.83547734550666,225.70873917202334L89.77052180451574,225.1757957286245L88.7532508400036,224.7155261297048L87.86313874612097,224.30370575684356L87.68829529907089,223.62541295514166L88.76914569881046,221.63898100848382L89.69104751036502,220.06436711188508L90.08841898088576,219.02269789839193L90.04073440446518,218.63509973456166L90.02483954560012,218.2959512002708L89.61157321633073,217.73877832253856L88.56251253420487,217.59342881777047L88.08566676959163,218.0779270730527L87.52934671088587,219.16804716546176L87.16376495803706,219.99169255588276L86.76639348751632,220.86378682923169L85.81270195834804,222.55952320351935L85.129223029071,223.09246824181173L84.25500579393702,222.82599576326174L83.15826053539058,222.48684885492548L81.95025126507971,222.09925222718084L81.64824894751655,221.92967864849925L80.50381911243312,221.15448472700518L79.16865097160917,220.20971620580895L78.59643605398014,219.62831968520186L77.64274452481186,219.04692277788854L77.07052960729925,218.65932462485944L75.92609977227403,217.9083527142393L75.59230773709714,217.47230421199492L75.35388485470321,217.1331552265292L75.8148357605096,217.0362554921885L77.46790107776178,216.81823105073272L78.46927718346706,216.69710633751674L79.40707385388669,214.97713359841873L88.11745648720535,215.09825854999872Z" /><path stroke-width="1" stroke="white" fill="steelblue" d="M51.52749148354633,231.03815573941756L51.30496346007567,231.20772755153666L49.969795319251716,232.07981063732223L48.80947062536143,232.95189285344532L47.919358531420585,234.09044332673875L47.347143613907974,235.49546101655142L46.69545440224465,236.53711060544083L47.0451412962866,237.62720768396684L47.29945903742919,238.78997640359012L46.23450349649647,239.90429497606965L45.21723253198434,241.06706066870902L44.61322789685801,241.5999944279356L44.07280269701732,241.98758241257747L43.53237749711843,242.52051561099142L43.77080037939595,243.51370843268523L43.85027467348846,245.11250426499464L43.24627003830392,246.61440071877587L42.34026308555622,247.63181298067502L41.49783556815237,248.1162945943761L40.90972579177469,247.63181298067502L39.94013940379955,245.6938838432834L38.81160442758119,244.2888825344744L38.00096662773285,244.0950890734166L37.19032882794272,243.90129556941974L35.5054737929604,244.14353744270193L34.26567480509402,244.3615550712966L33.311983275809325,244.43422760208705L32.43776604073355,244.506900126853L31.595338523271494,244.45845177767478L30.625752135238145,243.97396813844898L29.513112017826643,243.0292242703108L37.54001572198467,232.176708704279L46.82261327281594,223.9887841643722L49.98569017800037,228.88216840409223Z" /><path stroke-width="1" stroke="white" fill="steelblue" d="M35.06041774607729,22.851784579932428L32.739768358296715,47.00909318474078L55.72373421199154,82.57750888796363L31.992709993792232,87.03557284454291L18.863556608441286,87.52014363743729L23.60022453678539,62.612855245428364L26.55666827724781,40.05515244842172L30.403224111767486,6.375000000003638L32.61260948772542,16.188416718934604Z" /><path stroke-width="1" stroke="white" fill="steelblue" d="M68.67804415029241,57.06434461901517L55.72373421199154,82.57750888796363L32.739768358296715,47.00909318474078L35.06041774607729,22.851784579932428L43.16679574421141,40.39437036105301L57.4721686822013,49.28667840003982Z" /><path stroke-width="1" stroke="white" fill="steelblue" d="M76.24399694864405,62.78245981598593L76.99105531326495,91.32401498829859L73.43060693755979,93.31074373367301L55.72373421199154,82.57750888796363L68.67804415029241,57.06434461901517Z" /><path stroke-width="1" stroke="white" fill="steelblue" d="M120.7813913623686,95.90317564247016L116.36262061039452,109.32555009566568L106.3170698361937,112.25712420477794L100.19754919037223,108.42911637303041L90.46989559254143,101.74217624132143L87.94261304015527,101.79063251397747L77.56327023071935,99.85237950437659L76.99105531326495,91.32401498829859L76.24399694864405,62.78245981598593L81.7913026768365,66.44106464013385L104.2507381895557,73.1767339260623L109.59141075308435,81.53567543124518L111.89616528194165,86.57523034135374Z" /><path stroke-width="1" stroke="white" fill="steelblue" d="M73.43060693755979,93.31074373367301L55.07204500044463,109.42246179418362L39.81298053317005,116.35162028699051L14.842157326987945,116.06088747223839L18.863556608441286,87.52014363743729L31.992709993792232,87.03557284454291L55.72373421199154,82.57750888796363Z" /><path stroke-width="1" stroke="white" fill="steelblue" d="M87.94261304015527,101.79063251397747L74.65451106667751,129.0226311965671L71.9841747849132,123.88641189125701L65.97591815091437,120.93064931968547L61.49356796371285,116.5454421095892L58.95039055246161,120.3976418870734L56.407213141268585,117.78105521476755L52.894449342100415,117.99910440434905L50.27179763675667,120.90642171619038L48.04651740199188,118.77438996959245L47.02924643747974,119.18626014547772L43.675431226496585,123.2564961184944L39.81298053317005,116.35162028699051L55.07204500044463,109.42246179418362L73.43060693755979,93.31074373367301L76.99105531326495,91.32401498829859L77.56327023071935,99.85237950437659Z" /><path stroke-width="1" stroke="white" fill="steelblue" d="M136.53319645294687,143.99502228388155L137.29614967637463,145.59400030823963L98.76701189664891,149.5187521177795L101.50092761369888,132.82632126436874L104.18715875427006,132.6082757855038L116.36262061039452,109.32555009566568L120.7813913623686,95.90317564247016L128.53808246651897,113.7350214604121L129.2692459722166,112.98395923405042L131.1607341718045,111.8210228960088L134.06949333590455,111.06995901903429L134.35560079460265,111.6756557445733L132.08263598330086,113.9772994597879L132.08263598330086,117.0542241887124L130.55672953661997,118.6047963111705L129.79377631330863,118.6047963111705L129.6030380074517,119.01666656723683L129.52356371330097,119.21048779681587L129.3964048427879,120.15536567351228L129.07850766641786,121.10024252532457L128.9354539369815,121.82707017549183L129.889145466208,121.87552533059716L131.51042106584646,121.73015985713937L132.13032055983786,121.89975290716393L132.9727480772417,122.14202863557148L134.16486248880392,122.38430429659275L135.29339746496407,122.86885541657466L135.70666379434988,124.10445955265459L135.9450866766274,124.71014721459869L136.2788787118625,125.34006193640744L136.16761470009806,126.16379588541167L136.4378273001057,126.96330162059894L136.62856560590444,127.71435179448235L136.91467306460254,128.39271913703487L137.56636227626586,128.877266915566L138.2498412055429,129.48295125977893L139.01279442891246,129.89481637338395L139.4419556169887,130.6458640205965L140.41154200508026,131.20309250182981L140.77712375792908,131.68763871767442L140.55459573445842,132.36600296719553L139.95059109927388,133.09282122002332L138.83795098186238,133.69850263435728L137.51867769984528,134.35263808902528L136.26298385305563,135.15213631136066L134.95960542972898,135.78204348514555L133.95822932414012,136.50885888927223L133.33832983009052,137.38103657412285L132.7661149126361,138.27744050752517L132.46411259507295,138.83466410957044L132.25747943035094,139.2222977096353L132.25747943035094,140.23983508965102L133.06811723019928,141.25737128190303L134.14896762999706,142.29913329593546L135.35697690030793,143.219759155887Z" /><path stroke-width="1" stroke="white" fill="steelblue" d="M116.36262061039452,109.32555009566568L104.18715875427006,132.6082757855038L101.50092761369888,132.82632126436874L95.2224583797506,132.8505485364185L77.24537305434933,133.40777560800416L74.65451106667751,129.0226311965671L87.94261304015527,101.79063251397747L90.46989559254143,101.74217624132143L100.19754919037223,108.42911637303041L106.3170698361937,112.25712420477794Z" /><path stroke-width="1" stroke="white" fill="steelblue" d="M39.81298053317005,116.35162028699051L43.675431226496585,123.2564961184944L45.69407829665579,128.63499305998994L46.409346943488345,130.37936331665696L45.3602862614207,135.66090752559103L44.96291479089996,137.13876508256726L45.20133767317748,138.98002672982693L48.95252435473958,151.26308058506402L49.36579068400897,153.22544594024657L48.95252435473958,154.99399365025965L46.50471609638771,162.5769041407948L21.231890572584234,133.72272988215627L18.41850056144176,130.74277334725411L14.93752647988731,127.69012437960919L13.348040597862564,125.41274437500033L14.842157326987945,116.06088747223839Z" /><path stroke-width="1" stroke="white" fill="steelblue" d="M74.65451106667751,129.0226311965671L77.24537305434933,133.40777560800416L63.55989961029263,149.03421581316434L62.60620808112435,147.9924618465484L61.4299885284272,145.787815627089L58.99807512899861,146.2965806340544L58.04438359971391,147.5079246938476L56.613846305932384,146.99916039370873L55.29457302385708,145.5697733903362L54.3408814946888,143.19553217201246L53.37129510671366,139.94911024510293L52.76729047152912,137.8898064872592L51.92486295400886,134.74027368239695L51.52749148354633,133.40777560800416L49.794951872201636,132.43868481977916L46.409346943488345,130.37936331665696L45.69407829665579,128.63499305998994L43.675431226496585,123.2564961184944L47.02924643747974,119.18626014547772L48.04651740199188,118.77438996959245L50.27179763675667,120.90642171619038L52.894449342100415,117.99910440434905L56.407213141268585,117.78105521476755L58.95039055246161,120.3976418870734L61.49356796371285,116.5454421095892L65.97591815091437,120.93064931968547L71.9841747849132,123.88641189125701Z" /><path stroke-width="1" stroke="white" fill="steelblue" d="M46.50471609638771,162.5769041407948L41.81573274452239,179.19608768397302L44.91523021447938,180.2862563017734L43.659536367689725,184.9376271081237L35.12399718130473,182.44236355899193L32.755663217103574,196.10566104991813L30.768805864616297,199.47300117900522L31.039018464507535,205.79581340211735L22.503479278238956,207.0555253132443L23.01211476046592,205.141731501084L23.23464278393658,202.08934282158225L22.582953572273254,198.89159086089057L21.645156901911832,196.59017122055593L18.084708526264876,191.4301240909117L15.446161962114275,188.71684764148813L12.600982233358081,184.84072380241923L10.804863186669536,179.87441498395128L7.371573681535665,176.70080772288566L4.033653329417575,176.3131907781535L10.328017422056291,146.58730336187L13.348040597862564,125.41274437500033L14.93752647988731,127.69012437960919L18.41850056144176,130.74277334725411L21.231890572584234,133.72272988215627Z" /><path stroke-width="1" stroke="white" fill="steelblue" d="M63.55989961029263,149.03421581316434L61.954518869461026,155.04244696170645L61.175670787342824,159.1851951367862L61.366409093141556,161.00218374316682L61.191565646091476,162.67380991855316L59.12523399951169,165.21758273545493L57.31322009401629,167.76134813575482L57.5993275528308,170.3535585813297L58.25101676443592,172.67927354896165L59.68155405827565,174.83539959704285L59.824607787595596,176.8946161307249L60.396822705166414,179.1476357137799L64.25927339837654,184.62269132527945L66.73887137434212,189.08023336921178L68.86878245620755,193.15014318834437L70.0450020088465,196.42059269141828L70.6172169263591,197.728769063684L63.480425316200126,204.19694566847102L63.52810989267891,201.0476521805249L63.21021271625068,199.47300117900522L62.84463096340187,197.55919075558268L62.20883661066182,195.9603079462904L61.68430626956979,194.5552266976083L61.11209135199897,193.7073317469658L60.93724790494889,193.46507589561588L59.856397505209316,191.84195995793198L57.77417099982267,188.93487909627584L55.07204500044463,186.6334332168626L51.89307323639514,183.7263350138128L48.09420197841246,180.9403568189191L44.91523021447938,180.2862563017734L41.81573274452239,179.19608768397302L46.50471609638771,162.5769041407948L48.95252435473958,154.99399365025965L49.36579068400897,153.22544594024657L48.95252435473958,151.26308058506402L45.20133767317748,138.98002672982693L44.96291479089996,137.13876508256726L45.3602862614207,135.66090752559103L46.409346943488345,130.37936331665696L49.794951872201636,132.43868481977916L51.52749148354633,133.40777560800416L51.92486295400886,134.74027368239695L52.76729047152912,137.8898064872592L53.37129510671366,139.94911024510293L54.3408814946888,143.19553217201246L55.29457302385708,145.5697733903362L56.613846305932384,146.99916039370873L58.04438359971391,147.5079246938476L58.99807512899861,146.2965806340544L61.4299885284272,145.787815627089L62.60620808112435,147.9924618465484Z" /><path stroke-width="1" stroke="white" fill="steelblue" d="M98.76701189664891,149.5187521177795L96.82783912058221,157.36820274561978L96.38278307358269,169.5540926296453L92.34548893332249,168.92420984881392L90.62884418078465,168.60926828786614L87.0207112286007,168.41545804004272L86.13059913471807,168.5365894499846L85.55838421720546,168.77885221944234L83.22183997061802,168.10051629547888L82.26814844144974,166.5015795311083L81.34624662989518,164.4181120779176L80.07465792429866,161.9712427857703L79.05738695978653,159.47591356813427L77.72221881896257,157.85273442000107L75.24262084299698,157.92541414794687L73.35113264340907,158.94292970329116L71.96827992610633,159.33055436456198L70.34700432646787,158.40994551280892L70.34700432646787,156.42336520633035L69.58405110304011,155.1635802285382L67.77203719766112,153.8068866789872L65.86465413920814,152.61977809189193L65.10170091583859,151.74761565123117L64.54538085719105,150.63318459657603L63.55989961029263,149.03421581316434L77.24537305434933,133.40777560800416L95.2224583797506,132.8505485364185L101.50092761369888,132.82632126436874Z" /><path stroke-width="1" stroke="white" fill="steelblue" d="M125.45447985542705,170.03861753626552L123.99215284391539,169.43296136095523L120.81318107998231,169.02111492160475L116.91894066910027,169.33605633389016L111.9597447172273,170.32933235110613L106.46012356551364,171.29838103447037L103.32883637800114,172.09784538815074L101.03997670789249,171.41951204421275L99.5935445552459,170.37778481086934L96.38278307358269,169.5540926296453L96.82783912058221,157.36820274561978L98.76701189664891,149.5187521177795L137.29614967637463,145.59400030823963L136.53319645294687,143.99502228388155L137.550467417459,144.552242231337L138.5359486642992,144.89141941628623L139.31479674647562,145.3517310991083L139.9823808168876,146.07853852455446L140.49101629911456,146.80534534414255L139.8234322287608,148.64658657565087L138.55184352316428,150.51205070047945L136.9782524999464,151.62648190990876L135.50003062962787,152.2806039130155L134.46686480636708,152.86204528169037L134.02180875942577,153.46771296185398L134.2920213593752,154.17028694381588L135.13444887677906,154.89708701930067L136.08814040600555,155.45430000032138L136.94646278233267,155.5754332099532L137.6299417115515,155.3573934205051L138.2498412055429,155.1635802285382L139.01279442891246,155.21203353053716L139.9029065227951,155.69656640276298L140.96786206378601,156.3991385893387L142.1281867576181,157.00480381314992L143.2408268749714,157.46510910201323L144.13093896891223,157.70737494593413L144.89389219234,157.82850784267794L145.5932659804239,157.97386729653954L146.19727061555022,157.46510910201323L146.5787472272059,157.07748361177073L146.5787472272059,156.49604505339812L146.38800892140716,155.5512065693365L146.02242716855835,154.77595371544885L144.87799733341672,152.86204528169037L144.28988755715545,149.59143254022638L144.28988755715545,148.06514239626267L144.67136416881112,147.45947096377859L145.43431739218067,147.265656016516L145.99063745088642,147.65328586792748L147.3575953093823,148.42854505380456L147.3575953093823,149.39761806686147L147.72317706223112,150.3666900029566L150.01203673233977,150.34246321768296L150.58425164985238,151.6991621567213L150.58425164985238,152.08679003734142L150.7749899556511,153.0316322745166L152.6823730141041,152.08679003734142L153.42943137860857,151.3115341037883L153.81090799032245,150.9239058785679L155.1460761312046,149.97906135775702L155.92492421338102,149.7852469705249L158.77010394219542,149.7852469705249L158.77010394219542,149.00998899085243L158.21378388348967,148.06514239626267L158.4045221893466,146.87802599277347L159.3582137185149,146.2965806340544L160.2960103888763,146.2965806340544L161.26559677696787,147.265656016516L162.01265514147235,148.23473032196853L162.96634667064063,150.5362774810783L162.7756083647837,151.6991621567213L162.58487005898496,153.22544594024657L162.58487005898496,154.1945136227696L162.41002661193488,155.1635802285382L161.63117852981668,157.27129637840335L161.63117852981668,158.40994551280892L162.0285500002792,158.9913827953642L162.21928830613615,160.73569231776128L162.0285500002792,161.8743369299773L161.44044022395974,162.84339500376518L161.26559677696787,164.00626327146892L160.67748700053198,166.13818440330942L159.53305716556497,166.52580586760087L158.96084224799415,167.3010482795471L157.81641241296893,167.85825333773028L156.4653494132799,168.63349456582728L155.54344760172535,167.44640615514072L154.95533782540588,166.67116387228452L153.42943137860857,165.1449036150443L151.91941979079274,163.7882255893128L150.7749899556511,163.98203686501802L150.58425164985238,164.75728153724776L150.58425164985238,165.53252552059712L150.2027750381967,166.62271120673904L149.32855780306272,166.88920083394987L148.29539197980193,167.34950090741404L147.32580559171038,167.90670593466712L146.59464208601275,168.585042009272L146.1177963213995,169.3602825916314L145.86347858031513,170.23242742359798L145.72042485093698,171.27415483049845L145.5932659804239,172.53391654506413L145.79989914502949,173.9390332352341L146.18137575674336,175.2714693861053L146.18137575674336,177.18532866178793L145.6250556980376,177.96056160452645L144.846207615803,177.76675343340685L143.14545772207202,175.6590867934974L143.14545772207202,174.1328422563165L140.96786206378601,171.63754781943135L137.74120572331594,169.33605633389016L136.0245609707199,168.585042009272L135.07086944155162,168.17319516971838L131.6534747952246,168.17319516971838L128.9831385134603,168.75462594550118L126.47175081988098,169.14224624748385Z" /><path stroke-width="1" stroke="white" fill="steelblue" d="M92.34548893332249,168.92420984881392L91.15337452181848,172.09784538815074L89.94536525156582,175.9982518837969L87.81545416964218,180.5527417568046L85.89217625244055,183.02378482911809L74.12998072564369,194.40987333592784L70.6172169263591,197.728769063684L70.0450020088465,196.42059269141828L68.86878245620755,193.15014318834437L66.73887137434212,189.08023336921178L64.25927339837654,184.62269132527945L60.396822705166414,179.1476357137799L59.824607787595596,176.8946161307249L59.68155405827565,174.83539959704285L58.25101676443592,172.67927354896165L57.5993275528308,170.3535585813297L57.31322009401629,167.76134813575482L59.12523399951169,165.21758273545493L61.191565646091476,162.67380991855316L61.366409093141556,161.00218374316682L61.175670787342824,159.1851951367862L61.954518869461026,155.04244696170645L63.55989961029263,149.03421581316434L64.54538085719105,150.63318459657603L65.10170091583859,151.74761565123117L65.86465413920814,152.61977809189193L67.77203719766112,153.8068866789872L69.58405110304011,155.1635802285382L70.34700432646787,156.42336520633035L70.34700432646787,158.40994551280892L71.96827992610633,159.33055436456198L73.35113264340907,158.94292970329116L75.24262084299698,157.92541414794687L77.72221881896257,157.85273442000107L79.05738695978653,159.47591356813427L80.07465792429866,161.9712427857703L81.34624662989518,164.4181120779176L82.26814844144974,166.5015795311083L83.22183997061802,168.10051629547888L85.55838421720546,168.77885221944234L86.13059913471807,168.5365894499846L87.0207112286007,168.41545804004272L90.62884418078465,168.60926828786614Z" /><path stroke-width="1" stroke="white" fill="steelblue" d="M96.38278307358269,169.5540926296453L99.5935445552459,170.37778481086934L91.02621565130539,193.7557829092002L89.07114801643183,193.029015193777L86.5279706052388,198.74623822088688L83.8894240410882,198.5282092155394L76.86389644263545,197.55919075558268L74.12998072564369,194.40987333592784L85.89217625244055,183.02378482911809L87.81545416964218,180.5527417568046L89.94536525156582,175.9982518837969L91.15337452181848,172.09784538815074L92.34548893332249,168.92420984881392Z" /><path stroke-width="1" stroke="white" fill="steelblue" d="M125.45447985542705,170.03861753626552L125.16837239667075,170.28087988870175L124.00804770283867,172.21897628693114L124.00804770283867,174.7142690613946L124.1987860086374,176.046704028784L124.58026262035128,177.20955470165427L125.53395414951956,177.79097945712783L126.47175081988098,177.9847876228996L128.01355212542694,181.2310680025439L130.31830665434245,182.97533307140475L132.95685321843484,187.57823804870714L135.69076893554302,190.46109775537116L128.04534184309887,189.6131988296329L122.56161555019207,189.66165021901907L115.77451083401684,190.6064517742634L111.68953211727785,192.03576500463532L107.65223797701765,193.58620382967638L107.60455340059707,192.3991493511894L107.98603001225274,190.1461639647605L107.55686882406007,188.9591048101065L106.2693852596567,188.2565588359721L104.39379191893386,187.9416242502557L103.07451863680035,186.17314331302623L103.32883637800114,183.2418177055515L102.7248317427584,179.80173708415896L102.2320911193965,175.53795637220537L102.48640886048088,173.30915361938605L103.32883637800114,172.09784538815074L106.46012356551364,171.29838103447037L111.9597447172273,170.32933235110613L116.91894066910027,169.33605633389016L120.81318107998231,169.02111492160475L123.99215284391539,169.43296136095523Z" /><path stroke-width="1" stroke="white" fill="steelblue" d="M103.32883637800114,172.09784538815074L102.48640886048088,173.30915361938605L102.2320911193965,175.53795637220537L102.7248317427584,179.80173708415896L103.32883637800114,183.2418177055515L103.07451863680035,186.17314331302623L104.39379191893386,187.9416242502557L106.2693852596567,188.2565588359721L107.55686882406007,188.9591048101065L107.98603001225274,190.1461639647605L107.60455340059707,192.3991493511894L107.65223797701765,193.58620382967638L105.63359090685844,194.16761767945354L104.72758395416895,198.67356189182465L103.59904897789238,201.91976535999493L101.38966360193444,199.40032491038437L99.7207034258754,197.22003404062707L97.43184375576675,195.86340586379447L91.02621565130539,193.7557829092002L99.5935445552459,170.37778481086934L101.03997670789249,171.41951204421275Z" /><path stroke-width="1" stroke="white" fill="steelblue" d="M63.480425316200126,204.19694566847102L61.65251655183965,210.93155057176773L46.82261327281594,223.9887841643722L37.54001572198467,232.176708704279L29.513112017826643,243.0292242703108L28.57531534746522,242.3024975235894L27.6375186771038,241.79378844170787L26.652037430205382,241.527321661717L26.1116122303647,241.89068543247777L26.365929971507285,242.81120630967416L27.112988336069975,243.87707137843245L27.955415853473824,244.7006934966339L28.829633088607807,245.30629750070148L29.21110970020527,245.7181079840011L28.55942048865836,246.42060777280858L27.287831783061847,247.82560565836684L26.49308884202037,248.62500000000364L25.9049790657009,247.87405382105499L25.444028159894515,247.26845159440927L24.045280583784916,245.0398317905565L23.01211476046592,242.3993944580725L23.37769651331473,240.94593931449344L23.82275256025605,239.46825744284797L24.9194978189189,236.94892521701695L25.6983459010371,232.24938224744983L25.221500136423856,228.42190075625695L25.555292171658948,225.92676139613104L25.793715053936467,222.65642232552636L25.92087392450776,220.81533717020648L24.585705783683807,215.70388305603046L22.78958673699526,213.18448235238975L21.756420913676266,209.50226825879145L22.503479278238956,207.0555253132443L31.039018464507535,205.79581340211735L30.768805864616297,199.47300117900522L32.755663217103574,196.10566104991813L35.12399718130473,182.44236355899193L43.659536367689725,184.9376271081237L44.91523021447938,180.2862563017734L48.09420197841246,180.9403568189191L51.89307323639514,183.7263350138128L55.07204500044463,186.6334332168626L57.77417099982267,188.93487909627584L59.856397505209316,191.84195995793198L60.93724790494889,193.46507589561588L61.11209135199897,193.7073317469658L61.68430626956979,194.5552266976083L62.20883661066182,195.9603079462904L62.84463096340187,197.55919075558268L63.21021271625068,199.47300117900522L63.52810989267891,201.0476521805249Z" /><path stroke-width="1" stroke="white" fill="steelblue" d="M135.69076893554302,190.46109775537116L137.97962860559346,193.51352707124897L138.23394634673605,194.16761767945354L138.9492149936268,195.9603079462904L139.23532245238312,197.14735758455572L139.9029065227951,198.28595470131768L139.31479674647562,198.50398376716475L137.61404685268644,199.27919778261275L136.29477357066935,199.27919778261275L135.69076893554302,199.27919778261275L134.7529722651234,199.08539434327395L132.82969434792176,199.08539434327395L132.273374289216,201.7744132238986L132.273374289216,203.0099056099898L132.273374289216,204.46342382728835L132.08263598330086,205.62623665995852L131.7011593717616,206.57102094695074L131.12894445413258,207.15242615424722L129.41229970165296,207.54002941083309L128.82418992521707,207.73383097467377L127.50491664319998,208.67861298267962L125.97901019651908,209.26001678756074L125.62932330247713,209.1873413331159L124.85047522024252,209.0662155622449L120.19328158604912,210.30169763720187L119.70054096262902,210.68929949682934L119.11243118619313,211.29492705830125L118.44484711583937,211.99745450373302L117.88852705713362,212.84533170301074L117.47526072774781,213.6932080797087L116.88715095142834,214.49263362430065L114.02607636380708,216.28528218704378L113.69228432857199,216.28528218704378L110.57689199986635,216.28528218704378L109.89341307064751,216.45485686074608L108.51056035328656,216.8666809313072L107.62044825940393,217.49652913448517L106.74623102426995,217.3511795894301L105.39516802452272,217.0847053606667L96.98678770876722,215.84923287508354L96.58941623824649,215.7765579685838L92.37727865099441,215.1467085259137L98.24248155555688,209.3084670871831L103.59904897789238,201.91976535999493L104.72758395416895,198.67356189182465L105.63359090685844,194.16761767945354L107.65223797701765,193.58620382967638L111.68953211727785,192.03576500463532L115.77451083401684,190.6064517742634L122.56161555019207,189.66165021901907L128.04534184309887,189.6131988296329Z" /><path stroke-width="1" stroke="white" fill="steelblue" d="M91.02621565130539,193.7557829092002L97.43184375576675,195.86340586379447L99.7207034258754,197.22003404062707L101.38966360193444,199.40032491038437L103.59904897789238,201.91976535999493L98.24248155555688,209.3084670871831L92.37727865099441,215.1467085259137L88.11745648720535,215.09825854999872L79.40707385388669,214.97713359841873L80.44023967714747,212.91800685326598L88.54661767539801,198.74623822088688L86.5279706052388,198.74623822088688L89.07114801643183,193.029015193777Z" /><path stroke-width="1" stroke="white" fill="steelblue" d="M86.5279706052388,198.74623822088688L88.54661767539801,198.74623822088688L80.44023967714747,212.91800685326598L77.99243141885381,212.55463104167575L75.84662547812331,212.6515312728734L74.05050643149298,212.45773079971696L70.9510089615942,212.14280493920523L69.9655277148122,212.28815535044123L68.67804415029241,212.48195586122165L65.54675696283812,212.14280493920523L63.480425316200126,204.19694566847102L70.6172169263591,197.728769063684L74.12998072564369,194.40987333592784L76.86389644263545,197.55919075558268L83.8894240410882,198.5282092155394Z" /><path stroke-width="1" stroke="white" fill="steelblue" d="M75.84662547812331,212.6515312728734L74.03461157268612,216.09148251969964L73.63724010222359,215.80078293809856L72.6835485729971,215.21938348478943L71.34838043211494,214.63798364472677L70.58542720874539,214.25038353649506L68.67804415029241,214.25038353649506L68.29656753863674,214.63798364472677L67.34287600946845,215.41318334555035L67.34287600946845,216.74555622479966L67.7402474799892,217.1331552265292L68.45551612682175,218.3928507949422L68.3124623974436,219.72521913213131L68.21709324454423,220.57308883482256L67.66077318589669,221.03336061471782L66.56402792729205,221.27560882256512L65.32422893936746,221.76010503689758L64.0685350925778,222.51107363848132L62.89231553982245,223.3589406390929L61.71609598718351,224.0614583881179L60.50808671687264,224.5701777849681L59.60207976412494,225.1273463085745L60.015346093452536,222.65642232552636L60.34913812868763,220.47618948183663L61.65251655183965,210.93155057176773L63.480425316200126,204.19694566847102L65.54675696283812,212.14280493920523L68.67804415029241,212.48195586122165L69.9655277148122,212.28815535044123L70.9510089615942,212.14280493920523L74.05050643149298,212.45773079971696Z" /><path stroke-width="1" stroke="white" fill="steelblue" d="M59.60207976412494,225.1273463085745L58.55301908199908,225.8783120176813L57.5993275528308,226.55660307151265L56.51847715303302,227.30756755302355L55.29457302385708,228.20387915435276L53.94351002422627,229.1728636357584L52.64013160089962,230.21452075560956L51.52749148354633,231.03815573941756L49.98569017800037,228.88216840409223L46.82261327281594,223.9887841643722L61.65251655183965,210.93155057176773L60.34913812868763,220.47618948183663L60.015346093452536,222.65642232552636Z" /><path stroke-width="1" stroke="white" fill="steelblue" d="M80.44023967714747,212.91800685326598L79.40707385388669,214.97713359841873L78.46927718346706,216.69710633751674L77.46790107776178,216.81823105073272L75.8148357605096,217.0362554921885L75.35388485470321,217.1331552265292L74.40019332553493,216.35795705124474L74.03461157268612,216.09148251969964L75.84662547812331,212.6515312728734L77.99243141885381,212.55463104167575Z" /></svg>